# xmcd
# Copyright (C) 1995-1998 Ti Kan
#
# Track frame offsets:
#       150
#       18661
#       41048
#       59927
#       74590
#
# Disc length: 1235 seconds
#
# Revision: 0
# Processed by: cddbd v1.5.2PL0 Copyright (c) Steve Scherf et al.
# Submitted via: CD-Import v1.0
#
DISCID=4f04d105
DTITLE=Gloria Volt - 
DYEAR=11
DGENRE=
TTITLE0=World Of Pain
TTITLE1=Call Me A Man
TTITLE2=Hard To Lose
TTITLE3=Rollercoaster
TTITLE4=Keep On Fighting
EXTD=
EXTT0=
EXTT1=
EXTT2=
EXTT3=
EXTT4=
PLAYORDER=
